<svg width="85" height="32" viewBox="0 0 85 32" fill="none" xmlns="http://www.w3.org/2000/svg">
<path d="M41.3051 8.59939C41.3697 8.64947 41.431 8.70153 41.4918 8.75623C41.5097 8.77169 41.5276 8.78716 41.546 8.80309C41.8722 9.10373 42.1204 9.58674 42.1514 10.0311C42.1535 10.1066 42.1538 10.1818 42.1531 10.2573C42.1528 10.284 42.1526 10.3107 42.1524 10.3383C42.1422 10.9992 41.8405 11.4549 41.4298 11.9516C41.3653 12.0303 41.3024 12.1103 41.2397 12.1905C41.228 12.2054 41.2163 12.2203 41.2043 12.2357C41.1809 12.2656 41.1575 12.2956 41.1341 12.3256C41.0745 12.4018 41.0147 12.4778 40.9549 12.5539C40.9308 12.5844 40.9068 12.615 40.8828 12.6455C40.4507 13.1955 40.4507 13.1955 40.4147 13.2414C40.3906 13.272 40.3666 13.3026 40.3425 13.3333C40.2835 13.4084 40.2244 13.4835 40.1654 13.5585C40.0148 13.7498 39.8651 13.9417 39.7158 14.1339C39.6114 14.2682 39.5066 14.4021 39.4013 14.5358C39.3032 14.6605 39.2058 14.7857 39.1084 14.911C38.9635 15.0976 38.8179 15.2836 38.6717 15.4693C38.6121 15.5451 38.5525 15.6209 38.4929 15.6968C38.4689 15.7273 38.4449 15.7579 38.4209 15.7884C38.409 15.8035 38.3971 15.8187 38.3849 15.8343C38.2529 16.0023 38.1208 16.1704 37.9888 16.3384C37.9769 16.3535 37.965 16.3687 37.9528 16.3842C37.9287 16.4148 37.9047 16.4454 37.8806 16.476C37.8211 16.5517 37.7617 16.6274 37.7025 16.7032C37.5606 16.8847 37.4167 17.0643 37.271 17.2427C37.1773 17.3578 37.0849 17.4737 36.9935 17.5907C36.8921 17.7204 36.789 17.8487 36.6843 17.9759C36.6059 18.0715 36.528 18.1674 36.4501 18.2634C36.3334 18.4071 36.2165 18.5507 36.0992 18.6938C36.0618 18.7394 36.0246 18.785 35.9874 18.8307C35.869 18.9762 35.7488 19.1201 35.6273 19.263C35.5519 19.3519 35.4776 19.4416 35.4041 19.532C35.2758 19.6895 35.1434 19.8434 35.0108 19.9973C34.9448 20.074 34.879 20.1509 34.8132 20.2277C34.7938 20.2503 34.7938 20.2503 34.7741 20.2733C34.7075 20.3509 34.641 20.4286 34.5747 20.5064C34.438 20.6666 34.3002 20.8254 34.1587 20.9813C34.11 21.0352 34.062 21.0896 34.0143 21.1444C33.9067 21.2679 33.7968 21.3894 33.687 21.5111C33.6477 21.5547 33.6084 21.5984 33.5691 21.642C33.5398 21.6746 33.5398 21.6746 33.5099 21.7078C33.4716 21.7504 33.4333 21.793 33.3951 21.8357C33.2323 22.0173 33.0671 22.1966 32.9012 22.3754C32.886 22.3918 32.8708 22.4082 32.8552 22.4251C32.5243 22.7824 32.5243 22.7824 32.3554 22.9457C32.3093 22.9932 32.2668 23.0414 32.224 23.0918C32.0866 23.2491 31.9376 23.3951 31.7899 23.5426C31.7583 23.5741 31.7268 23.6057 31.6953 23.6373C31.6295 23.7031 31.5636 23.7689 31.4978 23.8346C31.4138 23.9184 31.33 24.0023 31.2462 24.0863C31.1812 24.1514 31.1161 24.2164 31.051 24.2814C31.0201 24.3123 30.9892 24.3433 30.9584 24.3742C30.8118 24.521 30.6656 24.6671 30.5072 24.8014C30.4416 24.8579 30.382 24.9193 30.3215 24.9813C30.2275 25.0766 30.1315 25.1675 30.0297 25.2544C29.9418 25.3317 29.8568 25.412 29.7715 25.492C29.6541 25.602 29.5366 25.7112 29.4146 25.8161C29.3554 25.8675 29.2975 25.9204 29.2395 25.9733C29.1488 26.0553 29.0563 26.1339 28.9612 26.2107C28.8616 26.2912 28.7657 26.3743 28.6714 26.4611C28.5558 26.5674 28.4367 26.6678 28.3145 26.7665C28.2333 26.8327 28.1536 26.9005 28.074 26.9685C27.9278 27.093 27.778 27.2121 27.6266 27.3301C27.5283 27.4067 27.4312 27.4847 27.3341 27.5627C27.1726 27.6923 27.0094 27.8194 26.8448 27.945C26.7951 27.983 26.7456 28.0211 26.6961 28.0592C26.4189 28.2725 26.1385 28.4811 25.856 28.6873C25.8358 28.702 25.8156 28.7168 25.7948 28.732C25.163 29.1927 24.5153 29.6294 23.8393 30.023C23.8216 30.0333 23.8039 30.0436 23.7857 30.0543C23.4689 30.2379 23.1442 30.4071 22.8178 30.573C22.7844 30.5901 22.7844 30.5901 22.7503 30.6075C21.4336 31.2735 19.9419 31.6995 18.4663 31.7737C18.3796 31.7785 18.2931 31.7851 18.2065 31.7915C16.6543 31.8951 15.0833 31.6507 13.6118 31.159C13.5915 31.1523 13.5712 31.1455 13.5503 31.1385C12.9975 30.9531 12.4724 30.7198 11.9491 30.4639C11.2886 30.1411 10.6181 29.8422 9.93205 29.5778C9.91517 29.5713 9.8983 29.5648 9.88091 29.5581C8.44344 29.0058 6.78229 28.6733 5.28648 29.1882C4.82906 29.3447 4.26676 29.4075 3.80344 29.2373C3.77569 29.2281 3.74794 29.2189 3.71934 29.2094C3.39913 29.0963 3.15682 28.9203 2.91296 28.6873C2.89685 28.6732 2.88075 28.659 2.86416 28.6444C2.47889 28.2928 2.2473 27.7141 2.22382 27.2027C2.20504 26.5444 2.4079 25.9925 2.85894 25.5068C3.14628 25.2316 3.50512 25.0261 3.83517 24.8071C4.18174 24.5771 4.5263 24.344 4.871 24.1112C5.26736 23.8436 5.26736 23.8436 5.46501 23.7121C5.7212 23.5417 5.97599 23.3693 6.23098 23.1971C6.77853 22.8274 6.77853 22.8274 7.01826 22.668C7.25818 22.5077 7.49699 22.3458 7.73612 22.1843C7.9812 22.0188 8.22631 21.8535 8.47253 21.6897C8.71102 21.5309 8.94818 21.3702 9.18561 21.2099C9.73316 20.8401 9.73316 20.8401 9.99134 20.6684C10.2299 20.5096 10.4672 20.3488 10.7047 20.1884C11.0064 19.9847 11.3082 19.7812 11.6113 19.5796C11.7036 19.5182 11.7958 19.4567 11.8881 19.3952C11.9262 19.3697 11.9643 19.3443 12.0024 19.3189C12.0212 19.3064 12.0401 19.2938 12.0595 19.2808C12.2147 19.1774 12.3698 19.074 12.5249 18.9706C12.5105 18.9662 12.496 18.9617 12.4811 18.9572C12.3076 18.904 12.1341 18.8505 11.9606 18.797C11.8798 18.7721 11.7989 18.7472 11.718 18.7223C11.1301 18.5415 10.5441 18.3558 9.95988 18.1636C9.34594 17.9616 8.7307 17.768 8.10666 17.5993C8.05929 17.5861 8.01207 17.5724 7.96491 17.5585C7.74705 17.4945 7.52898 17.4423 7.30644 17.3975C7.27344 17.3908 7.24045 17.3841 7.20645 17.3771C6.72148 17.2793 6.2515 17.2097 5.75628 17.2093C5.73651 17.2092 5.71674 17.2092 5.69638 17.2092C5.39137 17.2096 5.09618 17.2209 4.79868 17.2944C4.78127 17.2986 4.76386 17.3028 4.74592 17.3072C4.2637 17.4292 3.83871 17.6661 3.44813 17.9692C2.94799 18.3536 2.38808 18.5193 1.75549 18.4395C1.3793 18.3771 1.02525 18.1988 0.739134 17.9491C0.71378 17.929 0.688425 17.9088 0.662302 17.888C0.301904 17.5872 0.0562586 17.0732 0.00579658 16.6134C-0.031769 15.9785 0.109754 15.4278 0.532883 14.9372C1.40023 14.0132 2.69481 13.4412 3.9082 13.1563C3.92616 13.152 3.94412 13.1477 3.96263 13.1433C4.48358 13.0215 5.01337 12.9864 5.54678 12.9903C5.63674 12.9909 5.72668 12.9908 5.81664 12.9907C6.40825 12.9913 6.98417 13.043 7.56671 13.1448C7.60603 13.1516 7.60603 13.1516 7.64614 13.1585C8.34095 13.2786 9.02401 13.4396 9.69554 13.6553C9.77097 13.6788 9.84669 13.7011 9.92257 13.7231C10.1743 13.7962 10.4237 13.8754 10.6729 13.9567C10.7147 13.9703 10.7565 13.9839 10.7983 13.9975C10.9071 14.0329 11.0159 14.0683 11.1247 14.1038C11.2988 14.1605 11.4729 14.2171 11.6471 14.2738C11.707 14.2932 11.7668 14.3128 11.8267 14.3323C13.9157 15.0392 13.9157 15.0392 16.0868 15.3301C16.1119 15.3306 16.1369 15.3312 16.1626 15.3317C16.6559 15.3408 17.1153 15.3111 17.5977 15.2089C18.224 15.0784 18.8496 15.1615 19.4049 15.4921C19.9554 15.863 20.335 16.4178 20.4676 17.0688C20.5744 17.6766 20.4066 18.2849 20.0685 18.7938C19.7713 19.197 19.3681 19.4596 18.9554 19.7318C18.8344 19.8116 18.7138 19.8917 18.5931 19.9719C18.5681 19.9884 18.5431 20.005 18.5173 20.0221C18.2371 20.2081 17.9583 20.3962 17.6796 20.5846C17.5886 20.646 17.4977 20.7075 17.4067 20.7689C17.3853 20.7834 17.3639 20.7979 17.3418 20.8128C17.2171 20.8969 17.0922 20.9807 16.967 21.064C16.712 21.2336 16.4585 21.4052 16.2047 21.5765C15.6572 21.9463 15.6572 21.9463 15.399 22.118C15.1604 22.2768 14.9232 22.4376 14.6856 22.598C14.1381 22.9677 14.1381 22.9677 13.8799 23.1394C13.6414 23.2982 13.4041 23.459 13.1666 23.6194C12.6191 23.9892 12.6191 23.9892 12.4074 24.1299C12.1516 24.3 11.8972 24.4722 11.6426 24.6441C10.7929 25.2178 10.7929 25.2178 10.6392 25.3087C10.6551 25.3115 10.671 25.3142 10.6873 25.3171C10.8516 25.3475 11.0048 25.3916 11.1614 25.4495C11.1859 25.4585 11.2105 25.4675 11.2358 25.4767C11.466 25.5628 11.689 25.6636 11.9126 25.7654C12.1176 25.8578 12.3246 25.9387 12.5364 26.0142C12.8598 26.1304 13.1683 26.2703 13.4785 26.4178C14.4028 26.8574 15.3026 27.2291 16.3226 27.3778C16.3423 27.3807 16.3621 27.3837 16.3825 27.3868C16.7911 27.4478 17.1968 27.4625 17.6092 27.4629C17.6332 27.4629 17.6573 27.463 17.6821 27.463C18.098 27.4631 18.5035 27.4383 18.9154 27.3778C18.9442 27.3736 18.973 27.3694 19.0027 27.3652C19.1659 27.3409 19.3275 27.3132 19.4884 27.2763C19.5084 27.2717 19.5285 27.2671 19.5492 27.2624C19.6087 27.2487 19.668 27.2347 19.7273 27.2206C19.7582 27.2134 19.7891 27.2062 19.8209 27.1988C20.3202 27.0743 20.8091 26.8937 21.2726 26.6706C21.29 26.6623 21.3075 26.654 21.3255 26.6454C21.9571 26.3422 22.5598 25.9828 23.1134 25.5528C23.18 25.5015 23.2478 25.4519 23.3155 25.402C23.4956 25.2669 23.6695 25.1243 23.8436 24.9814C23.8854 24.9471 23.9275 24.913 23.9695 24.8789C24.1488 24.7334 24.3241 24.5835 24.499 24.4328C24.5463 24.3922 24.5937 24.3517 24.6412 24.3113C24.7834 24.1902 24.9245 24.0683 25.0621 23.9419C25.153 23.8583 25.2457 23.7786 25.342 23.7013C25.4676 23.6 25.5854 23.4924 25.703 23.3822C25.8134 23.2795 25.9283 23.1842 26.0459 23.0898C26.1248 23.0244 26.2001 22.9558 26.275 22.8861C26.3721 22.7957 26.471 22.7089 26.5746 22.6258C26.7164 22.5116 26.8491 22.3891 26.9822 22.265C27.0596 22.1927 27.1389 22.1227 27.219 22.0534C27.2803 21.9999 27.3408 21.9454 27.4012 21.8908C27.4793 21.8204 27.5576 21.7504 27.6369 21.6813C27.8399 21.5043 28.0386 21.3224 28.2369 21.1401C28.2916 21.0899 28.3464 21.0399 28.4013 20.9899C28.5279 20.8745 28.653 20.7585 28.7729 20.636C28.8181 20.5919 28.8654 20.5516 28.9137 20.5109C29.008 20.4294 29.094 20.3418 29.1789 20.2506C29.1914 20.2375 29.2039 20.2243 29.2167 20.2107C29.2882 20.1328 29.3292 20.0644 29.3655 19.9658C29.0653 19.665 28.765 19.3642 28.4646 19.0636C28.3251 18.9239 28.1856 18.7843 28.0462 18.6446C27.9247 18.5227 27.803 18.401 27.6814 18.2792C27.617 18.2148 27.5527 18.1504 27.4884 18.0859C27.4164 18.0138 27.3444 17.9417 27.2723 17.8696C27.2513 17.8485 27.2302 17.8274 27.2085 17.8056C27.1187 17.7159 27.0284 17.6283 26.9321 17.5456C26.7981 17.43 26.6744 17.3042 26.5497 17.1788C26.5227 17.1517 26.4956 17.1246 26.4686 17.0975C26.4107 17.0396 26.3529 16.9816 26.2951 16.9236C26.2036 16.8317 26.1119 16.7399 26.0203 16.6481C25.8092 16.4368 25.5983 16.2253 25.3874 16.0138C25.1939 15.8198 25.0005 15.6258 24.8069 15.432C24.7159 15.3409 24.6251 15.2498 24.5342 15.1586C24.4776 15.1017 24.4208 15.0449 24.3641 14.9881C24.3379 14.9619 24.3118 14.9357 24.2858 14.9095C24.1577 14.7808 24.0286 14.6557 23.8908 14.5374C23.7909 14.4493 23.6973 14.3546 23.6028 14.2606C23.5802 14.2382 23.5576 14.2158 23.5342 14.1926C23.4599 14.119 23.3857 14.0452 23.3115 13.9713C23.2857 13.9457 23.2599 13.9201 23.2341 13.8944C23.1268 13.7877 23.0195 13.6808 22.9123 13.5739C22.7598 13.4218 22.607 13.27 22.454 13.1184C22.3457 13.0112 22.2377 12.9037 22.1299 12.796C22.0658 12.732 22.0016 12.6681 21.9372 12.6045C21.3993 12.0729 21.0353 11.5603 21.0254 10.7745C21.0298 10.2125 21.2596 9.69551 21.6512 9.29324C22.0532 8.90075 22.5913 8.69705 23.1501 8.69549C23.4806 8.70063 23.807 8.78991 24.1012 8.93957C24.1278 8.95294 24.1543 8.96631 24.1817 8.98008C24.4915 9.15752 24.7287 9.42556 24.9732 9.68151C25.0264 9.734 25.0793 9.78217 25.136 9.83047C25.2731 9.95 25.4007 10.0787 25.5289 10.2076C25.5559 10.2346 25.583 10.2617 25.61 10.2888C25.6679 10.3467 25.7257 10.4047 25.7835 10.4627C25.875 10.5546 25.9666 10.6464 26.0583 10.7382C26.2693 10.9496 26.4803 11.1611 26.6912 11.3726C26.8846 11.5665 27.0781 11.7605 27.2717 11.9543C27.3626 12.0454 27.4535 12.1365 27.5443 12.2277C27.601 12.2846 27.6578 12.3414 27.7145 12.3982C27.7406 12.4244 27.7667 12.4506 27.7928 12.4768C27.9041 12.5887 28.0148 12.6999 28.1345 12.8027C28.268 12.9173 28.3907 13.0425 28.5146 13.1671C28.5416 13.1942 28.5687 13.2213 28.5957 13.2483C28.6536 13.3063 28.7114 13.3643 28.7692 13.4223C28.8607 13.5142 28.9524 13.606 29.044 13.6977C29.2551 13.9091 29.466 14.1206 29.6769 14.3321C29.8704 14.5261 30.0638 14.72 30.2574 14.9139C30.3484 15.0049 30.4392 15.0961 30.5301 15.1873C30.5868 15.2441 30.6435 15.301 30.7003 15.3578C30.7264 15.384 30.7525 15.4101 30.7785 15.4364C30.9091 15.5676 31.0407 15.6954 31.1812 15.816C31.2348 15.8623 31.2854 15.9111 31.3354 15.9613C31.3542 15.9801 31.3731 15.999 31.3925 16.0184C31.4121 16.0381 31.4316 16.0578 31.4517 16.078C31.4724 16.0987 31.493 16.1194 31.5143 16.1407C31.5794 16.206 31.6445 16.2714 31.7096 16.3368C31.754 16.3814 31.7985 16.426 31.843 16.4706C31.9513 16.5792 32.0597 16.688 32.1679 16.7968C32.3492 16.6161 32.5146 16.4247 32.6758 16.226C32.727 16.1629 32.7786 16.1001 32.8304 16.0375C32.9878 15.8475 33.1433 15.6565 33.2948 15.4618C33.3751 15.359 33.4581 15.2589 33.5429 15.1598C33.6798 14.9998 33.81 14.8352 33.9393 14.669C33.998 14.5935 34.0568 14.5181 34.1158 14.4429C34.1276 14.4279 34.1393 14.4129 34.1514 14.3975C34.2446 14.279 34.3396 14.1619 34.435 14.0451C34.5599 13.8921 34.6817 13.7373 34.8015 13.5803C34.8679 13.4934 34.9354 13.4075 35.003 13.3216C35.1149 13.1796 35.2261 13.0371 35.337 12.8944C35.4571 12.7397 35.5777 12.5854 35.6988 12.4315C35.7969 12.3068 35.8944 12.1816 35.9917 12.0563C36.1119 11.9016 36.2324 11.7473 36.3536 11.5934C36.4517 11.4687 36.5491 11.3435 36.6465 11.2182C36.7914 11.0316 36.937 10.8455 37.0832 10.6599C37.1308 10.5995 37.1783 10.539 37.2258 10.4785C37.2499 10.4478 37.274 10.4171 37.2981 10.3865C37.3576 10.3108 37.417 10.2351 37.4762 10.1593C37.6181 9.97777 37.7621 9.79814 37.9078 9.61968C37.9884 9.52086 38.068 9.42141 38.1463 9.32084C38.1932 9.26066 38.2404 9.20075 38.2878 9.14092C38.3111 9.11134 38.3344 9.0817 38.3576 9.05199C39.0816 8.13069 40.3321 7.91767 41.3051 8.59939Z" fill="#E63F3A"/>
<path d="M51.9593 0.000420698C51.9902 0.000343417 52.0211 0.000266135 52.0529 0.000186511C52.4583 -4.27961e-05 52.8592 0.011236 53.2623 0.0560758C53.2819 0.0582436 53.3016 0.0604115 53.3218 0.062645C53.5806 0.0920604 53.834 0.13878 54.0889 0.19194C54.1356 0.200779 54.1824 0.209461 54.2292 0.217926C55.073 0.371206 55.8976 0.629321 56.6818 0.977659C56.7084 0.989395 56.735 1.00113 56.7625 1.01322C57.9533 1.54112 59.021 2.24783 59.9818 3.12529C60.0068 3.14791 60.0319 3.17053 60.0577 3.19384C60.2903 3.40441 60.5185 3.61948 60.7223 3.85853C60.7732 3.91762 60.826 3.97475 60.8788 4.03214C61.0126 4.18042 61.1347 4.33672 61.2565 4.4948C61.2876 4.53485 61.3194 4.57439 61.3513 4.61386C62.7744 6.3989 63.6827 8.76014 63.9546 11.1716C63.9627 11.2436 63.9721 11.3152 63.982 11.3869C64.0317 11.7542 64.0594 12.122 64.0839 12.4917C64.0855 12.5162 64.0872 12.5407 64.0889 12.566C64.1001 12.7365 64.1102 12.9071 64.1199 13.0777C64.1218 13.1095 64.1218 13.1095 64.1237 13.142C64.1514 13.6272 64.1496 14.1122 64.1488 14.598C64.1486 14.7153 64.1486 14.8326 64.1486 14.9499C64.1485 15.171 64.1483 15.3921 64.148 15.6132C64.1477 15.8654 64.1476 16.1175 64.1474 16.3697C64.1472 16.8875 64.1467 17.4052 64.1461 17.923C64.2047 17.877 64.2633 17.8311 64.3219 17.7851C64.3384 17.7722 64.3549 17.7593 64.3719 17.7459C64.4946 17.6496 64.6156 17.5515 64.7354 17.4516C64.8844 17.3281 65.0348 17.2068 65.1875 17.0879C65.3043 16.9967 65.4194 16.9036 65.5342 16.8099C65.6636 16.7043 65.7937 16.5999 65.9254 16.4972C66.0632 16.3898 66.1985 16.2796 66.333 16.1682C66.4821 16.0448 66.6326 15.9235 66.7852 15.8044C66.9729 15.6578 67.1569 15.5069 67.3414 15.3563C67.5557 15.1813 67.7705 15.0071 67.9886 14.8368C68.1238 14.7309 68.257 14.6225 68.3901 14.5139C68.5017 14.4229 68.6143 14.3334 68.7278 14.2449C68.8656 14.1374 69.0009 14.0273 69.1354 13.9158C69.2844 13.7925 69.4347 13.6712 69.5873 13.5523C69.7063 13.4594 69.8237 13.3646 69.9408 13.2693C69.9586 13.2547 69.9765 13.2402 69.9948 13.2253C70.0689 13.165 70.1428 13.1047 70.2165 13.0441C70.7947 12.5727 71.327 12.3396 72.0819 12.3968C72.6547 12.4787 73.1641 12.7697 73.5118 13.2316C73.7231 13.5291 73.8703 13.8905 73.889 14.2563C73.8904 14.2832 73.8918 14.3101 73.8932 14.3378C73.909 14.9437 73.7093 15.511 73.2901 15.9537C73.2717 15.9726 73.2533 15.9916 73.2343 16.0111C73.2131 16.0342 73.2131 16.0342 73.1915 16.0578C73.069 16.1881 72.9269 16.2942 72.7858 16.4033C72.6807 16.4848 72.5777 16.5686 72.4747 16.6528C72.3454 16.7584 72.2152 16.8628 72.0835 16.9654C71.9457 17.0728 71.8105 17.183 71.6759 17.2944C71.5269 17.4179 71.3765 17.5392 71.2238 17.6581C71.107 17.7493 70.9919 17.8424 70.8771 17.9361C70.7273 18.0584 70.5764 18.179 70.4238 18.2978C70.2492 18.4191 70.2492 18.4191 70.1176 18.5778C70.1357 18.5845 70.1538 18.5913 70.1725 18.5982C70.5659 18.7634 70.918 19.0404 71.2438 19.3111C71.2702 19.3327 71.2966 19.3542 71.3239 19.3765C71.6966 19.685 72.0482 20.0276 72.3438 20.4111C72.367 20.4393 72.3903 20.4675 72.4137 20.4955C73.3451 21.6209 73.9306 22.9621 74.324 24.3582C74.5702 25.2269 74.8752 26.2134 75.5458 26.8585C75.5914 26.9064 75.5914 26.9064 75.5914 26.9588C75.6141 26.9687 75.6141 26.9687 75.6371 26.9789C75.7027 27.0147 75.7485 27.0563 75.8026 27.1077C76.1378 27.4102 76.5422 27.5964 76.9795 27.6921C76.9989 27.6967 77.0182 27.7014 77.0381 27.7061C77.4791 27.8052 77.9639 27.7743 78.3938 27.6397C78.4115 27.6343 78.4293 27.6288 78.4475 27.6231C79.1249 27.407 79.7234 26.9483 80.1486 26.3826C80.1777 26.3442 80.1777 26.3442 80.2074 26.3051C80.3324 26.1368 80.4441 25.9623 80.5529 25.7831C80.8771 25.2514 81.2322 24.8571 81.8248 24.6278C81.8508 24.617 81.8768 24.6062 81.9037 24.5951C82.1135 24.5207 82.3141 24.5131 82.5352 24.5116C82.5636 24.5113 82.592 24.511 82.6213 24.5108C83.1844 24.5168 83.6766 24.7718 84.0681 25.1666C84.4931 25.6162 84.6181 26.1443 84.6098 26.7422C84.5719 27.7614 83.684 28.8048 83.0296 29.5254C83.0147 29.5419 82.9998 29.5584 82.9845 29.5754C82.1942 30.4488 81.2209 31.0928 80.1224 31.5159C80.0999 31.5247 80.0774 31.5334 80.0543 31.5424C79.5463 31.7376 79.0114 31.8628 78.4724 31.935C78.4434 31.939 78.4434 31.939 78.4138 31.9432C77.8742 32.0159 77.3138 32.0225 76.7747 31.943C76.7135 31.9344 76.6522 31.9274 76.5908 31.9205C75.4264 31.7824 74.2957 31.2782 73.3652 30.5731C73.3502 30.5618 73.3351 30.5505 73.3196 30.5388C72.8083 30.1529 72.3123 29.6955 71.9247 29.185C71.9043 29.1594 71.8839 29.1339 71.8628 29.1076C71.5148 28.6708 71.2106 28.1838 70.9999 27.6659C70.992 27.6467 70.9841 27.6275 70.976 27.6077C70.9063 27.429 70.8577 27.2448 70.8073 27.0599C70.5656 26.175 70.2797 25.3101 69.908 24.4707C69.8985 24.449 69.889 24.4274 69.8792 24.4051C69.4512 23.4394 68.7818 22.5261 67.767 22.1315C67.2251 21.934 66.5955 21.8913 66.058 22.1135C66.0327 22.1234 66.0327 22.1234 66.0069 22.1335C65.475 22.3416 65.0076 22.6715 64.5521 23.0105C64.5354 23.0229 64.5188 23.0352 64.5017 23.0479C64.4702 23.0716 64.439 23.0957 64.4081 23.1202C64.3732 23.1475 64.3375 23.1738 64.3012 23.1993C64.1901 23.2834 64.1901 23.2834 64.127 23.404C64.1199 23.4743 64.1193 23.5418 64.1212 23.6123C64.1209 23.6518 64.1209 23.6518 64.1207 23.692C64.1204 23.7787 64.1215 23.8653 64.1227 23.952C64.1227 24.0125 64.1226 24.0731 64.1224 24.1337C64.1221 24.2931 64.123 24.4526 64.1242 24.612C64.1259 24.8666 64.126 25.1212 64.1258 25.3758C64.1259 25.4643 64.1267 25.5528 64.1274 25.6413C64.1288 25.9168 64.1265 26.1703 64.0413 26.435C64.0315 26.4669 64.0216 26.4988 64.0115 26.5316C63.78 27.1306 63.3874 27.5368 62.8052 27.8023C62.3676 27.9952 61.7771 28.0032 61.3308 27.8374C61.0726 27.7235 60.8477 27.5921 60.6366 27.404C60.6167 27.3866 60.5968 27.3692 60.5763 27.3512C60.122 26.9275 59.9265 26.3186 59.9002 25.7103C59.8952 25.5161 59.8959 25.3219 59.8963 25.1277C59.8962 25.0628 59.8961 24.9979 59.8961 24.933C59.8959 24.7758 59.8961 24.6187 59.8964 24.4616C59.8966 24.3328 59.8968 24.2041 59.8968 24.0753C59.8976 22.9662 59.9088 21.8573 59.9278 20.7483C59.9281 20.731 59.9284 20.7137 59.9287 20.6959C59.9343 20.3696 59.94 20.0433 59.9458 19.717C59.9749 18.0741 59.9853 16.4313 59.9879 14.7882C59.9882 14.6279 59.9887 14.4677 59.9892 14.3075C59.9899 14.1105 59.9903 13.9135 59.9903 13.7164C59.9903 13.6147 59.9904 13.5129 59.9909 13.4111C59.993 12.946 59.9748 12.4898 59.9132 12.0281C59.8998 11.9253 59.8883 11.8224 59.8768 11.7194C59.8377 11.3809 59.764 11.0513 59.6858 10.72C59.6702 10.6536 59.6552 10.587 59.6405 10.5204C59.3406 9.16884 58.7628 7.85069 57.8604 6.79198C57.8365 6.76328 57.8127 6.73457 57.7888 6.70584C57.5168 6.38021 57.2248 6.08577 56.8913 5.82293C56.8698 5.80456 56.8482 5.78619 56.826 5.76727C56.6083 5.582 56.3726 5.42629 56.1318 5.27292C56.1142 5.26168 56.0966 5.25044 56.0784 5.23885C55.4269 4.82792 54.7035 4.52167 53.958 4.33006C53.9119 4.31735 53.9119 4.31735 53.865 4.30438C52.8481 4.03328 51.7751 3.9988 50.7365 4.14673C50.7143 4.1498 50.6921 4.15288 50.6692 4.15605C50.5336 4.17523 50.3993 4.19855 50.2651 4.2253C50.2455 4.22912 50.2259 4.23294 50.2058 4.23688C48.8556 4.50877 47.5479 5.14856 46.4936 6.03245C46.4658 6.05531 46.4379 6.07816 46.41 6.101C46.0763 6.37674 45.7438 6.67182 45.4607 6.99987C45.13 7.37957 44.7425 7.65754 44.2412 7.76103C43.8378 7.78822 43.4355 7.80114 43.0626 7.63008C43.0328 7.61647 43.0029 7.60287 42.9721 7.58885C42.4483 7.32726 42.1039 6.89445 41.9093 6.35012C41.7574 5.85728 41.8013 5.3372 42.0199 4.87352C42.2756 4.39663 42.683 4.02691 43.061 3.64747C43.0738 3.63456 43.0867 3.62165 43.0999 3.60834C43.2486 3.45902 43.3995 3.31401 43.5603 3.17767C43.5867 3.1547 43.6131 3.13172 43.6396 3.10872C43.8682 2.91293 44.1051 2.72952 44.346 2.5491C44.3631 2.53625 44.3802 2.52341 44.3978 2.51018C45.0556 2.01753 45.7587 1.60662 46.4936 1.23957C46.5159 1.2283 46.5383 1.21704 46.5613 1.20543C47.267 0.850869 48.0212 0.584162 48.7879 0.397091C48.8507 0.381704 48.9135 0.366042 48.9762 0.350183C49.4301 0.235437 49.882 0.145847 50.3469 0.0888141C50.3685 0.0861509 50.3901 0.0834877 50.4123 0.0807438C50.928 0.0182147 51.44 0.00156815 51.9593 0.000420698Z" fill="#E63F3A"/>
<path d="M50.1868 13.6014C50.2222 13.6088 50.2222 13.6088 50.2583 13.6162C51.605 13.8987 53.4204 14.5022 54.4035 15.4872C54.4197 15.5015 54.4358 15.5158 54.4525 15.5305C54.8119 15.8572 55.011 16.3902 55.0422 16.8679C55.0566 17.2582 54.9818 17.6293 54.7964 17.9753C54.7835 18.0005 54.7706 18.0257 54.7574 18.0516C54.4783 18.5672 54.011 18.9115 53.4574 19.0867C52.9236 19.2413 52.3333 19.1645 51.8447 18.9071C51.7148 18.8355 51.5865 18.7614 51.4583 18.6871C51.291 18.5904 51.1203 18.503 50.9461 18.4195C50.8907 18.3927 50.8357 18.3652 50.7807 18.3375C50.4441 18.1707 50.0968 18.044 49.7416 17.9229C49.7174 17.9145 49.6933 17.906 49.6684 17.8973C49.0668 17.6872 48.4408 17.5554 47.8035 17.53C47.7623 17.5283 47.7623 17.5283 47.7203 17.5266C47.0035 17.5011 46.3086 17.5901 45.6558 17.8934C45.6333 17.9039 45.6107 17.9143 45.5875 17.9251C45.4279 18.0026 45.2952 18.099 45.1582 18.211C45.1312 18.2304 45.1042 18.2499 45.0764 18.2699C44.9109 18.4282 44.7843 18.6355 44.7556 18.865C44.7499 19.13 44.809 19.3693 44.9749 19.5811C45.8242 20.4449 47.8075 20.5002 48.9506 20.661C49.1623 20.6911 49.3734 20.7263 49.5845 20.7607C49.6581 20.7727 49.7318 20.7845 49.8054 20.7962C50.3635 20.8849 50.9192 20.9833 51.4734 21.0936C51.5002 21.0989 51.5269 21.1042 51.5545 21.1096C52.076 21.2129 52.5948 21.331 53.1022 21.4914C53.1337 21.5013 53.1652 21.5112 53.1976 21.5214C54.3825 21.8996 55.4316 22.411 56.3416 23.2658C56.3582 23.281 56.3749 23.2962 56.392 23.3119C56.5513 23.4628 56.6824 23.6403 56.813 23.8158C56.8242 23.8308 56.8354 23.8458 56.8469 23.8612C57.1643 24.2933 57.3843 24.7915 57.5202 25.3087C57.5284 25.34 57.5367 25.3713 57.5451 25.4035C57.7806 26.4019 57.6832 27.508 57.2845 28.4515C57.2746 28.475 57.2648 28.4984 57.2546 28.5225C57.0474 29.0045 56.7692 29.4234 56.4202 29.8134C56.3994 29.8374 56.3786 29.8614 56.3572 29.8861C56.2379 30.0221 56.1147 30.144 55.9749 30.2587C55.9622 30.2695 55.9495 30.2804 55.9364 30.2916C55.4113 30.7391 54.8105 31.0515 54.1742 31.3087C54.1374 31.3236 54.1006 31.3387 54.0639 31.354C53.5563 31.5656 53.0057 31.6827 52.4654 31.7777C52.4146 31.7868 52.4146 31.7868 52.3629 31.7961C52.0937 31.8433 51.8245 31.8787 51.5525 31.9056C51.4891 31.9119 51.4258 31.9186 51.3625 31.9254C50.6896 31.9946 50.0117 31.9922 49.336 31.9921C49.2515 31.9921 49.167 31.9923 49.0824 31.9927C48.5923 31.9947 48.108 31.9887 47.6201 31.9349C47.5858 31.9313 47.5515 31.9277 47.5161 31.9241C47.4355 31.9153 47.3551 31.9057 47.2747 31.8956C47.2492 31.8925 47.2237 31.8895 47.1973 31.8863C45.0623 31.6245 42.9657 30.8952 41.1248 29.7873C41.1005 29.7727 41.0763 29.7582 41.0512 29.7432C40.7231 29.5465 40.4094 29.3359 40.1034 29.1063C40.0791 29.0882 40.0791 29.0882 40.0543 29.0698C39.8119 28.8891 39.5783 28.6975 39.3701 28.4777C39.3584 28.4659 39.3468 28.4542 39.3348 28.442C38.9066 27.9818 38.8229 27.4034 38.8418 26.8005C38.8726 26.265 39.1525 25.769 39.537 25.4052C39.6733 25.2868 39.815 25.1873 39.9725 25.0991C40.004 25.0815 40.004 25.0815 40.0362 25.0634C40.5668 24.796 41.1278 24.7754 41.6895 24.9437C42.0541 25.0647 42.3281 25.2652 42.6254 25.5002C44.0529 26.625 45.7587 27.3803 47.5546 27.6609C47.587 27.666 47.6194 27.6711 47.6528 27.6764C47.7553 27.6916 47.8578 27.7054 47.9606 27.7182C47.9795 27.7206 47.9985 27.7231 48.018 27.7256C48.4496 27.7795 48.8819 27.78 49.3161 27.7789C49.3756 27.7788 49.4351 27.7787 49.4946 27.7786C51.3566 27.8315 51.3566 27.8315 52.9817 27.1248C53.1571 26.9362 53.1874 26.7545 53.182 26.5C53.1641 26.3268 53.1123 26.1906 52.9892 26.0682C52.9892 26.0509 52.9892 26.0336 52.9892 26.0158C52.9741 26.0087 52.9589 26.0016 52.9434 25.9943C52.8844 25.9634 52.8338 25.9281 52.78 25.8891C52.6388 25.7941 52.4899 25.74 52.3295 25.6851C52.3004 25.675 52.2713 25.6648 52.2413 25.6543C52.0382 25.5839 51.8351 25.5206 51.6273 25.4658C51.5908 25.4559 51.5544 25.446 51.5179 25.4361C51.2347 25.3597 50.9509 25.2934 50.6631 25.2366C50.6415 25.2323 50.6198 25.228 50.5975 25.2236C49.6832 25.0422 48.7605 24.9034 47.8399 24.7578C47.0473 24.6323 46.2577 24.5025 45.4785 24.3081C45.3916 24.2867 45.3046 24.2661 45.2174 24.2457C43.6515 23.874 42.1304 23.221 41.2387 21.8146C40.7987 21.0997 40.5363 20.357 40.5388 19.5107C40.5388 19.4923 40.5389 19.4739 40.5389 19.4549C40.5443 17.9097 41.073 16.4257 42.1463 15.3038C42.1599 15.2894 42.1735 15.2749 42.1875 15.2601C43.9337 13.4105 46.8417 13.071 50.1868 13.6014Z" fill="#E63F3A"/>
</svg>
